<?xml version="1.0" encoding="UTF-8"?>
<svg version="1.1" xmlns="http://www.w3.org/2000/svg" width="2000" height="1995">
<path d="M0 0 C1.16053894 0.00060425 2.32107788 0.0012085 3.51678467 0.00183105 C94.2535388 0.12859939 184.95430718 12.47071454 281 40.1875 C281.71291199 40.39763733 282.42582397 40.60777466 283.16033936 40.82427979 C328.29012819 54.17122663 372.48323192 71.0050826 415 91.1875 C416.54373291 91.91815674 416.54373291 91.91815674 418.11865234 92.66357422 C425.43207762 96.13146346 432.72146484 99.64705262 440 103.1875 C440.88139648 103.61385742 441.76279297 104.04021484 442.67089844 104.47949219 C455.52010674 110.70896226 467.93921206 117.57110405 480.32666016 124.66943359 C483.42765764 126.43034705 486.55469905 128.13879063 489.68798828 129.84130859 C518.96206559 145.80715218 547.03205906 164.59832382 574 184.1875 C574.74185547 184.72503906 575.48371094 185.26257813 576.24804688 185.81640625 C598.01122732 201.62126351 618.94687027 218.37712143 639.40527344 235.83105469 C641.04909383 237.22925831 642.6998962 238.61888965 644.3515625 240.0078125 C652.06843476 246.52450142 659.4923483 253.3035925 666.8203125 260.25390625 C670.00619749 263.274536 673.24926098 266.2255501 676.50390625 269.171875 C683.46477274 275.51250075 690.11894209 282.15531833 696.76538086 288.82250977 C698.82357157 290.88610061 700.8871098 292.94423675 702.95117188 295.00195312 C704.28677934 296.3382209 705.62207684 297.67479857 706.95703125 299.01171875 C707.56134476 299.61400803 708.16565826 300.2162973 708.7882843 300.83683777 C712.47728091 304.54583552 715.9721046 308.37413003 719.3745575 312.34797668 C721.01621278 314.20584811 722.73013836 315.95205465 724.5 317.6875 C728.21182466 321.35016142 731.61067228 325.22686514 735 329.1875 C735.89571402 330.23057122 736.7915573 331.27353145 737.6875 332.31640625 C739.73033078 334.69581482 741.77026787 337.07766904 743.80859375 339.4609375 C745.92030934 341.92924374 748.0376464 344.39253309 750.16015625 346.8515625 C755.91484372 353.52421442 761.57085869 360.2450092 767 367.1875 C767.74588379 368.13834473 767.74588379 368.13834473 768.50683594 369.10839844 C776.80949102 379.698767 785.00434507 390.36325504 793 401.1875 C793.50321777 401.86683594 794.00643555 402.54617188 794.52490234 403.24609375 C803.41490706 415.28248211 811.76960599 427.648801 819.99462891 440.14697266 C821.92753554 443.07762998 823.87441123 445.99853809 825.82421875 448.91796875 C834.51370393 461.99629984 842.50642895 475.39244119 850.22851562 489.06201172 C851.88177715 491.97891553 853.55401762 494.88380118 855.234375 497.78515625 C864.74494718 514.28037762 873.43930234 531.1854194 882 548.1875 C882.5775 549.3317041 883.155 550.4759082 883.75 551.65478516 C899.38764298 582.83139609 912.56111707 615.21139072 924.24145508 648.05834961 C924.99841938 650.18306338 925.76127877 652.30558179 926.52539062 654.42773438 C954.06052219 731.08438863 971.14455389 812.05423873 978 893.1875 C978.07412109 894.04085937 978.14824219 894.89421875 978.22460938 895.7734375 C985.82299119 983.70684757 981.19312652 1073.19733511 889 1395.1875 C888.5488382 1396.14496124 888.5488382 1396.14496124 888.08856201 1397.12176514 C876.66947632 1421.33874954 864.50017572 1445.06025515 851 1468.1875 C850.22487061 1469.52312988 850.22487061 1469.52312988 849.43408203 1470.88574219 C834.1828625 1497.1446902 817.54678731 1522.41642059 800 1547.1875 C799.44908691 1547.96561035 798.89817383 1548.7437207 798.33056641 1549.54541016 C784.09075677 1569.60105784 768.83863795 1588.89643763 752.87768555 1607.60888672 C750.06950367 1610.90413424 747.33308511 1614.2472793 744.625 1617.625 C740.00591376 1623.307473 735.02540953 1628.61802979 730.015625 1633.953125 C727.6616963 1636.46378878 725.37005786 1639.01587871 723.125 1641.625 C720.49068637 1644.68106334 717.69671568 1647.51387487 714.81713867 1650.33789062 C713.1715241 1652.01291091 711.66235221 1653.73088928 710.15234375 1655.52734375 C705.03348156 1661.41247835 699.47028808 1666.86628879 693.94848633 1672.36938477 C692.06671726 1674.24579475 690.19035262 1676.12748969 688.31445312 1678.00976562 C682.94004204 1683.387205 677.58149734 1688.72089136 671.78686523 1693.65014648 C668.41947658 1696.54732456 665.2243389 1699.6331946 662 1702.6875 C643.04308968 1720.6447295 622.65264763 1737.2229382 602 1753.1875 C601.22672363 1753.78820313 600.45344727 1754.38890625 599.65673828 1755.0078125 C588.8300778 1763.4064736 577.87584844 1771.49649546 566.4921875 1779.125 C563.14357051 1781.37799862 559.87770917 1783.72398816 556.625 1786.11328125 C551.23905716 1790.0520032 545.72521115 1793.74929428 540.125 1797.375 C539.12960205 1798.02082031 538.1342041 1798.66664062 537.10864258 1799.33203125 C511.72508723 1815.74355265 485.66822895 1830.95855651 459 1845.1875 C457.54956299 1845.96407959 457.54956299 1845.96407959 456.06982422 1846.75634766 C439.65568224 1855.51570249 422.96757749 1863.55877391 406 1871.1875 C404.83436523 1871.71311523 403.66873047 1872.23873047 402.46777344 1872.78027344 C319.33616042 1910.06674077 231.0046125 1935.28722027 -303.21191406 1909.41894531 C-306.51925555 1908.34378222 -309.83196721 1907.28873777 -313.1484375 1906.2421875 C-357.53274774 1892.06402575 -400.40263849 1873.05909298 -442 1852.1875 C-442.9870694 1851.69316467 -442.9870694 1851.69316467 -443.99407959 1851.18884277 C-460.46453778 1842.93233402 -476.58142333 1834.18212903 -492.40332031 1824.73193359 C-494.7571117 1823.33196327 -497.12056433 1821.95150749 -499.4921875 1820.58203125 C-541.72640303 1796.15914476 -581.44906021 1767.49677134 -619.19580078 1736.65966797 C-620.78273046 1735.36478489 -622.37348737 1734.07459522 -623.96484375 1732.78515625 C-634.41813239 1724.29665608 -644.61902016 1715.53518091 -654.5390625 1706.4296875 C-656.74786947 1704.41721893 -658.98693298 1702.45091984 -661.25 1700.5 C-664.35389526 1697.8061722 -667.24805151 1694.9644543 -670.12416077 1692.03089905 C-671.93995718 1690.24650446 -673.81370031 1688.58597441 -675.74780273 1686.93139648 C-679.84137721 1683.37055349 -683.70590554 1679.6265809 -687.53515625 1675.78515625 C-688.21750839 1675.10376083 -688.89986053 1674.42236542 -689.60289001 1673.72032166 C-691.03344437 1672.29044259 -692.46275767 1670.85932089 -693.89086914 1669.42700195 C-696.05699074 1667.25552289 -698.22840174 1665.08943675 -700.40039062 1662.92382812 C-701.79979987 1661.52375798 -703.19889884 1660.12337762 -704.59765625 1658.72265625 C-705.23639175 1658.08594498 -705.87512726 1657.4492337 -706.53321838 1656.79322815 C-710.30656686 1653.00051791 -713.89882356 1649.09855873 -717.38719177 1645.04185486 C-720.1700457 1641.84221921 -723.09203409 1638.77303625 -726 1635.6875 C-730.76678456 1630.60122753 -735.4693222 1625.48625408 -740 1620.1875 C-740.89799555 1619.15456354 -741.79648068 1618.1220526 -742.6953125 1617.08984375 C-748.30726257 1610.62203476 -753.74769228 1604.05933635 -758.99731445 1597.29394531 C-761.89839459 1593.56212266 -764.88113065 1589.91969828 -767.9375 1586.3125 C-773.34507705 1579.86598689 -778.37062813 1573.16081328 -783.36865234 1566.39404297 C-785.06971021 1564.09321073 -786.77865023 1561.79837375 -788.48828125 1559.50390625 C-795.88849243 1549.54808789 -803.07290338 1539.47766854 -810 1529.1875 C-810.54124512 1528.38586426 -811.08249023 1527.58422852 -811.64013672 1526.75830078 C-830.94354157 1498.13263101 -848.84138072 1468.70700699 -865 1438.1875 C-865.54188965 1437.16543457 -866.0837793 1436.14336914 -866.64208984 1435.09033203 C-907.6738093 1357.43525968 -937.97673261 1274.95816976 -978 1036.1875 C-978.08757568 1034.89054199 -978.17515137 1033.59358398 -978.26538086 1032.25732422 C-979.2581696 1016.39153381 -979.18737612 1000.50263832 -979.18530273 984.61279297 C-979.18522222 981.35785271 -979.19205937 978.10305545 -979.20581055 974.84814453 C-979.32977729 944.9902287 -978.32532897 915.22164037 -975.3125 885.5 C-975.23174225 884.68583618 -975.1509845 883.87167236 -975.06777954 883.03283691 C-970.48310609 837.27179724 -962.78687149 791.88952809 -952 747.1875 C-951.83820251 746.51497192 -951.67640503 745.84244385 -951.50970459 745.14953613 C-939.21252959 694.17602843 -922.46404557 644.45181352 -902 596.1875 C-901.60358307 595.25251678 -901.60358307 595.25251678 -901.19915771 594.29864502 C-885.70574885 557.86580112 -867.97114515 522.05514639 -847.70263672 488.05322266 C-846.02825589 485.23505774 -844.3726081 482.40674348 -842.72265625 479.57421875 C-831.86527823 460.97211892 -820.38018224 442.81382334 -808 425.1875 C-807.04807056 423.82299097 -806.09625004 422.45840596 -805.14453125 421.09375 C-789.02984503 398.05821883 -772.02770626 375.7580988 -754 354.1875 C-753.23961426 353.27629395 -753.23961426 353.27629395 -752.46386719 352.34667969 C-747.10877582 345.93975883 -741.66161942 339.63141074 -736.046875 333.44921875 C-734.1749031 331.38076125 -732.3313661 329.29189086 -730.5 327.1875 C-726.384539 322.47342649 -722.21754269 317.81057564 -718 313.1875 C-717.53787109 312.67880371 -717.07574219 312.17010742 -716.59960938 311.64599609 C-707.37205996 301.52653086 -697.73513709 291.81589817 -688.0625 282.125 C-687.42880493 281.48871674 -686.79510986 280.85243347 -686.14221191 280.1968689 C-673.60591819 267.62023622 -673.60591819 267.62023622 -667.57910156 262.55834961 C-665.85168723 261.05874672 -664.27180863 259.46167209 -662.6875 257.8125 C-659.90697444 254.98176179 -656.96847403 252.4846282 -653.875 250 C-649.58433303 246.54983355 -645.51389925 242.94923263 -641.5 239.1875 C-635.86462475 233.92221156 -630.02056343 229.01021401 -624 224.1875 C-622.73722387 223.15754505 -621.47557873 222.12620246 -620.21484375 221.09375 C-611.92085744 214.30675988 -603.54856436 207.65242867 -595 201.1875 C-594.39752441 200.73052734 -593.79504883 200.27355469 -593.17431641 199.80273438 C-588.46934263 196.23751969 -583.74289411 192.7020977 -579 189.1875 C-578.31341309 188.67848145 -577.62682617 188.16946289 -576.91943359 187.64501953 C-563.913177 178.03960654 -550.50639847 169.07095135 -537 160.1875 C-536.24928223 159.69040527 -535.49856445 159.19331055 -534.72509766 158.68115234 C-466.0724114 113.22348851 -390.56544567 76.76687908 -297.00506592 45.82696533 C-295.12184582 45.22635966 -293.24077517 44.61902614 -291.35986328 44.01123047 C-220.21314821 21.14156452 -145.78520256 8.21225147 -71.375 2.5 C-70.58902435 2.43897095 -69.80304871 2.37794189 -68.99325562 2.31506348 C-46.02469486 0.55808753 -23.03069818 -0.02256478 0 0 Z " fill="#6BBDF3" transform="translate(999,18.8125)"/>
<path d="M0 0 C1.11466393 -0.01065742 1.11466393 -0.01065742 2.25184631 -0.02153015 C37.01022065 -0.27416994 71.2411891 2.4233924 105.73046875 6.640625 C106.92113953 6.7856546 108.1118103 6.9306842 109.33856201 7.08010864 C124.95412251 9.00120667 140.44878277 11.33212155 155.91796875 14.203125 C157.14974854 14.4302417 158.38152832 14.6573584 159.65063477 14.89135742 C162.5354606 15.43536871 165.41507854 15.99864264 168.29296875 16.578125 C169.31422852 16.78308594 170.33548828 16.98804687 171.38769531 17.19921875 C181.98259141 19.3628967 192.47939612 21.90405126 202.97802734 24.48876953 C205.75189933 25.16277297 208.52997626 25.81199565 211.3125 26.44921875 C252.06085577 35.79752884 292.18034123 49.5554016 330.91796875 65.203125 C331.90966064 65.60210999 331.90966064 65.60210999 332.92138672 66.00915527 C350.98029834 73.28026644 368.59074796 81.20956868 386.05908203 89.81054688 C389.25546573 91.36752148 392.47689251 92.8605898 395.70996094 94.33935547 C406.74724288 99.39922107 417.31967556 105.29077215 427.91796875 111.203125 C429.33070068 111.98695557 429.33070068 111.98695557 430.77197266 112.78662109 C464.41478988 131.47067755 497.09285154 152.13225148 527.91796875 175.203125 C529.29272539 176.22168272 530.66773085 177.23990467 532.04296875 178.2578125 C544.27301664 187.34072858 556.24685546 196.68405489 567.828125 206.58203125 C570.69374569 209.02615834 573.61202397 211.40008234 576.54296875 213.765625 C581.30316928 217.63891772 585.84601659 221.71072492 590.36328125 225.86328125 C592.5449469 227.86147348 594.74808184 229.82461389 596.98046875 231.765625 C604.14257861 238.00689216 611.12054916 244.34428291 617.79296875 251.109375 C619.65290571 252.94195995 621.54976419 254.6442108 623.54296875 256.328125 C632.40257084 263.93989581 640.7842056 272.46005173 648.31640625 281.3828125 C650.25834297 283.58998936 652.32534999 285.63850114 654.41796875 287.703125 C657.7889694 291.03433307 660.96310905 294.45424128 664.046875 298.05078125 C666.24876704 300.58364662 668.51992701 303.04645022 670.79296875 305.515625 C674.88357435 310.00110052 678.76614718 314.60893044 682.578125 319.33203125 C684.65516689 321.88065527 686.76745345 324.39018064 688.90332031 326.88916016 C695.12163615 334.16716791 701.06968512 341.62572147 706.91796875 349.203125 C707.51770508 349.97688477 708.11744141 350.75064453 708.73535156 351.54785156 C764.05486668 423.01498558 809.17006706 503.3088071 849.91796875 615.203125 C850.44197266 616.70939453 850.44197266 616.70939453 850.9765625 618.24609375 C854.93235472 629.63686895 858.36424337 641.09494913 861.453125 652.75 C862.62262341 657.15300138 863.87779152 661.52478152 865.16601562 665.89428711 C868.68083414 677.85494063 871.49914457 689.93768759 874.21533203 702.1015625 C874.85213081 704.91250469 875.51578475 707.71476121 876.1953125 710.515625 C889.29752823 764.97463604 896.06209558 822.72479922 896.0859375 878.71875 C896.08916805 880.5492963 896.0925333 882.37984236 896.09602356 884.21038818 C896.10195893 888.02568151 896.10386949 891.84095239 896.10327148 895.65625 C896.10319061 899.49939724 896.11008023 903.34242428 896.1237793 907.18554688 C896.20361851 929.95658121 895.89192778 952.50292749 893.91796875 975.203125 C893.75954998 977.11831572 893.60125845 979.03351697 893.44311523 980.94873047 C893.01671706 985.97520744 892.54090565 990.99577991 892.04296875 996.015625 C891.95837402 996.87979034 891.8737793 997.74395569 891.78662109 998.63430786 C890.47176733 1011.96687018 888.72778242 1025.15324283 886.40039062 1038.35009766 C885.90688922 1041.26864897 885.47390891 1044.1904424 885.05859375 1047.12109375 C878.30559842 1094.65354071 866.20433431 1141.72075998 850.91796875 1187.203125 C850.70329956 1187.84264099 850.48863037 1188.48215698 850.26745605 1189.14105225 C837.01695588 1228.52165254 820.83001785 1266.61899178 802.53125 1303.91357422 C801.10058987 1306.83075257 799.67996524 1309.75255704 798.26171875 1312.67578125 C781.1961854 1347.60663461 760.60459522 1381.47023884 738.27001953 1413.27441406 C736.88298268 1415.2530329 735.50745781 1417.23931908 734.1328125 1419.2265625 C714.83464877 1446.99205372 693.70071652 1473.91509168 670.95703125 1498.94921875 C669.12710628 1500.9719519 667.32915147 1503.01681935 665.54296875 1505.078125 C658.85137671 1512.74783838 651.97850048 1520.22790302 644.72265625 1527.3671875 C642.9916075 1529.12821112 641.38972328 1530.94538458 639.79296875 1532.828125 C632.4734071 1541.32554714 624.33068789 1549.32284888 615.7734375 1556.56640625 C613.55633291 1558.52212588 611.49420963 1560.5986839 609.41796875 1562.703125 C606.08676068 1566.07412565 602.66685247 1569.2482653 599.0703125 1572.33203125 C596.53744713 1574.53392329 594.07464353 1576.80508326 591.60546875 1579.078125 C587.11999323 1583.1687306 582.51216331 1587.05130343 577.7890625 1590.86328125 C575.23981312 1592.94083279 572.72973099 1595.05373542 570.22998047 1597.18994141 C563.50021303 1602.94068647 556.61724479 1608.46406233 549.61914062 1613.88427734 C548.00161269 1615.13827934 546.38932958 1616.39903798 544.77734375 1617.66015625 C535.66336784 1624.74753199 526.32196484 1631.50688693 516.91796875 1638.203125 C516.11407715 1638.77611328 515.31018555 1639.34910156 514.48193359 1639.93945312 C502.17033612 1648.69328012 489.66941276 1657.10366552 476.91796875 1665.203125 C475.6956958 1665.98139648 475.6956958 1665.98139648 474.44873047 1666.77539062 C451.27925359 1681.47425685 427.3827612 1694.79495005 402.91796875 1707.203125 C402.18255859 1707.57840332 401.44714844 1707.95368164 400.68945312 1708.34033203 C396.84257301 1710.30216597 392.98058301 1712.22992521 389.10253906 1714.12939453 C387.54218537 1714.89631849 385.98453136 1715.6687451 384.42871094 1716.44482422 C346.47131239 1735.35503306 306.89468043 1750.17065947 266.60546875 1763.265625 C265.9347937 1763.48401031 265.26411865 1763.70239563 264.57312012 1763.92739868 C254.84555533 1767.08130235 245.04352689 1769.90158318 235.17703247 1772.58682251 C232.97514504 1773.18752655 230.77530685 1773.79521263 228.57592773 1774.4050293 C205.0342972 1780.91659372 181.39157563 1786.27620045 157.37921143 1790.74240112 C154.81682549 1791.22205817 152.2568605 1791.71353437 149.69677734 1792.20532227 C137.05786654 1794.60361858 124.39815417 1796.45663297 111.62939453 1798.01342773 C108.52265433 1798.39310766 105.41758714 1798.78478713 102.3125 1799.17773438 C92.27123519 1800.43037763 82.28373851 1801.51605367 72.17333984 1801.9855957 C69.02555597 1802.19593584 66.02352504 1802.66250993 62.91796875 1803.203125 C39.31839182 1805.72137885 15.61279872 1805.43187354 -8.08203125 1805.203125 C-8.39166426 1785.03728277 -8.41009685 1764.99601952 -6.64453125 1744.890625 C-6.5433046 1743.72460754 -6.5433046 1743.72460754 -6.44003296 1742.53503418 C-5.32477839 1729.93136643 -5.32477839 1729.93136643 -4.08203125 1726.203125 C-3.87927408 1724.58587824 -3.71528774 1722.96363472 -3.57421875 1721.33984375 C-2.24379131 1707.29048531 -0.22698484 1693.50949101 2.35546875 1679.640625 C2.50058899 1678.85618011 2.64570923 1678.07173523 2.79522705 1677.26351929 C5.63609343 1661.98371939 8.8479558 1646.82281081 12.93994141 1631.82617188 C13.91981528 1628.19628463 14.83948404 1624.55603647 15.7421875 1620.90625 C19.72352544 1604.91174084 24.30471917 1589.31380878 29.70751953 1573.73046875 C31.02305613 1569.89689215 32.30170937 1566.052421 33.5703125 1562.203125 C33.90388763 1561.19270897 33.90388763 1561.19270897 34.24420166 1560.16188049 C35.32088057 1556.90015512 36.39572542 1553.63784706 37.46826172 1550.37475586 C39.73322409 1543.54588964 42.1712875 1536.85132011 44.91796875 1530.203125 C45.72251527 1528.20228941 46.52582454 1526.20095603 47.328125 1524.19921875 C74.9303621 1455.78573599 109.64789747 1390.7320263 151.91796875 1330.203125 C152.41216309 1329.49285156 152.90635742 1328.78257813 153.41552734 1328.05078125 C168.27954957 1306.71158569 183.99353296 1286.14618433 200.44140625 1266.01171875 C201.74844416 1264.4107702 203.05220231 1262.80714524 204.35546875 1261.203125 C212.31177385 1251.42823587 220.40293945 1241.78658481 228.87890625 1232.45703125 C230.70883122 1230.4342981 232.50678603 1228.38943065 234.29296875 1226.328125 C238.54003417 1221.45906373 242.91430004 1216.70771637 247.29618835 1211.96034241 C248.34947105 1210.81909869 249.40216827 1209.67731424 250.45417786 1208.53489685 C259.03424515 1199.22783565 267.81432771 1190.14796943 276.77929688 1181.21142578 C278.81629296 1179.179863 280.84778826 1177.14290664 282.87890625 1175.10546875 C284.20150192 1173.78353293 285.52440724 1172.46190683 286.84765625 1171.140625 C287.44053436 1170.54572266 288.03341248 1169.95082031 288.64425659 1169.33789062 C292.32627912 1165.67605823 296.13041181 1162.21029802 300.07473755 1158.83227539 C301.93370064 1157.18922028 303.68144678 1155.47437545 305.41796875 1153.703125 C308.40669212 1150.66717575 311.53503354 1147.85803841 314.76171875 1145.078125 C317.11759833 1143.02953406 319.42304335 1140.93109498 321.73046875 1138.828125 C326.09947558 1134.88063031 330.61789716 1131.1588791 335.1953125 1127.45703125 C337.85934228 1125.25165796 340.42585317 1122.9713619 342.98046875 1120.640625 C346.91314008 1117.06546925 350.9503234 1113.69421234 355.125 1110.40625 C357.1553421 1108.80469343 359.17201745 1107.19194716 361.1796875 1105.5625 C371.55135113 1097.16175326 382.20215434 1089.15793516 392.91796875 1081.203125 C393.73910156 1080.59114258 394.56023437 1079.97916016 395.40625 1079.34863281 C406.08493724 1071.39071158 416.87546094 1063.64806071 427.91796875 1056.203125 C428.50932617 1055.80206543 429.10068359 1055.40100586 429.70996094 1054.98779297 C445.4191401 1044.33949341 461.42346996 1034.0735965 477.78662109 1024.45800781 C479.33854275 1023.54427616 480.88802425 1022.62639625 482.43603516 1021.70605469 C503.02752581 1009.4644409 524.01186809 997.81063622 545.5703125 987.34814453 C548.4428037 985.94714789 551.30454188 984.52489825 554.16796875 983.10546875 C587.56180503 966.65592096 621.98087083 952.95128386 657.16796875 940.828125 C657.88410339 940.58068542 658.60023804 940.33324585 659.33807373 940.07830811 C669.78218274 936.48007959 680.30492538 933.26359178 690.91796875 930.203125 C692.52428145 929.72548535 694.12996475 929.24571036 695.734375 928.76171875 C705.0669605 925.96875521 714.43545772 923.4372152 723.91796875 921.203125 C724.97193848 920.95304688 726.0259082 920.70296875 727.11181641 920.4453125 C775.3336012 909.07243806 824.33599124 901.64100235 873.91796875 900.203125 C873.34804199 900.18854248 872.77811523 900.17395996 872.19091797 900.15893555 C819.57165962 898.68601269 765.1938574 891.17914001 714.60546875 876.5390625 C711.05563114 875.51351938 707.49214352 874.55440062 703.91796875 873.6171875 C688.74205208 869.63504163 673.78821838 865.20737473 658.91796875 860.203125 C657.68175781 859.78998047 656.44554687 859.37683594 655.171875 858.95117188 C621.24444284 847.56676929 588.09636133 833.8598395 555.91796875 818.203125 C555.25494751 817.88085938 554.59192627 817.55859375 553.90881348 817.2265625 C536.05549573 808.53875613 518.45311498 799.55799965 501.28417969 789.56982422 C498.48236917 787.95152714 495.65511175 786.38334948 492.82250977 784.81982422 C461.95403237 767.73354228 432.43866457 747.94477892 403.91796875 727.203125 C403.20705078 726.68669434 402.49613281 726.17026367 401.76367188 725.63818359 C386.13536633 714.26218464 370.81071314 702.52815484 355.91796875 690.203125 C354.14728757 688.76543759 352.37644983 687.32794298 350.60546875 685.890625 C341.24694862 678.23000781 332.09271019 670.3343027 323.13671875 662.20703125 C321.12488482 660.39000518 319.09136441 658.60368108 317.04296875 656.828125 C312.14626748 652.55570437 307.36290438 648.1611166 302.59277344 643.74853516 C300.9486435 642.23142983 299.29675683 640.72312174 297.64453125 639.21484375 C287.96765588 630.31642822 278.65811628 621.05137893 269.35546875 611.765625 C268.69508606 611.10783051 268.03470337 610.45003601 267.35430908 609.77230835 C254.29091056 596.7492803 254.29091056 596.7492803 249.28344727 590.78295898 C247.74198451 588.99951442 246.10058304 587.35329219 244.41796875 585.703125 C241.3820195 582.71440163 238.57288216 579.58606021 235.79296875 576.359375 C233.74437781 574.00349542 231.64593873 571.6980504 229.54296875 569.390625 C225.68774489 565.12002349 222.0421436 560.71538831 218.42578125 556.2421875 C215.52964887 552.73254421 212.54113292 549.31296673 209.54296875 545.890625 C203.881296 539.40722907 198.51609742 532.739589 193.25634766 525.92822266 C191.91793703 524.20308412 190.56699317 522.48863819 189.2109375 520.77734375 C182.81550823 512.70512003 176.56481923 504.53306913 170.4375 496.25537109 C169.45300274 494.92573036 168.46616792 493.59781596 167.4765625 492.27197266 C151.19986355 470.42371974 136.13581942 447.43805894 121.91796875 424.203125 C121.4374707 423.4179248 120.95697266 422.63272461 120.46191406 421.82373047 C108.93277274 402.91399348 98.04839871 383.7332347 87.9296875 364.03125 C86.19966663 360.66489753 84.45201956 357.31470035 82.625 354 C71.19612161 333.22697249 61.94046703 311.07446508 52.77001953 289.23046875 C52.01203429 287.42694169 51.24493866 285.62724966 50.4765625 283.828125 C45.10152773 271.15719664 40.50316678 258.17588041 35.91796875 245.203125 C35.42858213 243.82805498 34.93899074 242.45305781 34.44921875 241.078125 C33.16789882 237.47564475 31.89793251 233.86933314 30.63671875 230.25976562 C29.97270495 228.35974789 29.30488234 226.46106239 28.63671875 224.5625 C25.14768043 214.40850387 22.34551237 204.098457 19.58935547 193.72558594 C19.01919298 191.58343364 18.44210407 189.44344531 17.859375 187.3046875 C17.04946394 184.31372963 16.25366481 181.31966085 15.47167969 178.32128906 C15.07169824 176.7912013 14.66827077 175.26201294 14.26269531 173.73339844 C9.95888332 157.44503453 6.62724024 141.05735926 3.54150391 124.50537109 C3.00327695 121.65491778 2.44183753 118.81122214 1.86328125 115.96875 C-4.81618351 82.79543263 -8.0983393 48.88626185 -8.20703125 15.078125 C-8.20989136 14.39526428 -8.21275146 13.71240356 -8.21569824 13.0088501 C-8.22143617 11.07101271 -8.21833581 9.13315524 -8.21484375 7.1953125 C-8.21371582 6.06464355 -8.21258789 4.93397461 -8.21142578 3.76904297 C-7.95419935 -1.33180576 -4.14423453 0.02578928 0 0 Z " fill="#6679F1" transform="translate(1008.08203125,94.796875)"/>
<path d="M0 0 C0.33 0 0.66 0 1 0 C1.10489746 1.64923462 1.10489746 1.64923462 1.21191406 3.33178711 C3.06681001 32.16824383 5.77439459 60.66540205 10.0625 89.25 C10.21259521 90.25482422 10.36269043 91.25964844 10.51733398 92.29492188 C11.48069358 98.44802619 12.7569849 104.47679014 14.19458008 110.53564453 C15.20664103 114.88882578 16.11770285 119.26028871 17.02719116 123.63586426 C17.1658963 124.30307495 17.30460144 124.97028564 17.44750977 125.65771484 C17.58843048 126.33582214 17.7293512 127.01392944 17.87454224 127.71258545 C21.77447057 146.41191432 25.88432311 165.02027288 31.82055664 183.19604492 C33.54845078 188.48832168 35.06566693 193.80889517 36.5 199.1875 C38.2731072 205.78607919 40.43030416 212.13704834 42.90356445 218.50439453 C44.59046784 222.85063208 46.04792106 227.19127195 47.26171875 231.69140625 C48.07837315 234.2450716 49.12583897 236.66468259 50.19946289 239.11938477 C51.80404596 242.88885821 53.16757627 246.75295298 54.57421875 250.59960938 C56.87101075 256.80831716 59.42388977 262.90271139 62 269 C62.4439209 270.05276123 62.8878418 271.10552246 63.34521484 272.19018555 C90.15382377 335.46132953 122.79806915 395.5169061 162 452 C162.52835449 452.76151367 163.05670898 453.52302734 163.60107422 454.30761719 C174.50786159 469.98283939 185.77771876 485.3938431 197.67773438 500.33056641 C199.03070196 502.03876293 200.36871933 503.75774144 201.703125 505.48046875 C206.85630573 512.12218229 212.15118391 518.60008462 217.65551758 524.9543457 C220.71056502 528.48253535 223.69394104 532.05463819 226.625 535.6875 C230.47694493 540.43264955 234.53187189 544.95488141 238.66796875 549.453125 C240.62405252 551.58941749 242.54187697 553.74780657 244.4375 555.9375 C248.68429032 560.8149042 253.05900819 565.57368464 257.45019531 570.32080078 C258.46787774 571.42345039 259.48294197 572.52852337 260.49511719 573.63623047 C269.70417235 583.71323172 279.29559905 593.40241472 288.9375 603.0625 C289.57137634 603.69896454 290.20525269 604.33542908 290.8583374 604.99118042 C299.87341825 614.0783531 299.87341825 614.0783531 309.40258789 622.61694336 C311.19095752 624.16533308 312.84406321 625.8114641 314.5 627.5 C317.48872337 630.53594925 320.61706479 633.34508659 323.84375 636.125 C326.19962958 638.17359094 328.5050746 640.27203002 330.8125 642.375 C335.18150683 646.32249469 339.69992841 650.0442459 344.27734375 653.74609375 C346.94137353 655.95146704 349.50788442 658.2317631 352.0625 660.5625 C355.99517133 664.13765575 360.03235465 667.50891266 364.20703125 670.796875 C366.23737335 672.39843157 368.2540487 674.01117784 370.26171875 675.640625 C379.81407298 683.37775489 389.59280289 690.7883431 399.46240234 698.11523438 C401.92223754 699.94224301 404.37732435 701.77548497 406.83203125 703.609375 C417.69457275 711.69950144 428.73613529 719.47907092 440 727 C441.44391113 727.96462158 441.44391113 727.96462158 442.91699219 728.94873047 C458.60257362 739.39167156 474.52467388 749.376247 490.70556641 759.03027344 C493.72148045 760.83347445 496.72663207 762.6533487 499.73046875 764.4765625 C517.57118713 775.20039752 536.13963825 784.54231879 554.73840332 793.8659668 C556.81860649 794.90904379 558.8972322 795.95519776 560.97558594 797.00195312 C590.08951942 811.62941511 620.26679524 824.19764953 651 835 C651.64171143 835.22623047 652.28342285 835.45246094 652.94458008 835.68554688 C675.23240711 843.5401934 697.51134518 850.44090012 720.4140625 856.3046875 C725.113622 857.50884031 729.80194204 858.74745147 734.48461914 860.01538086 C783.01068063 873.07385435 833.85798955 879.43960347 884 881 C883.67 881.66 883.34 882.32 883 883 C882.0205542 883.04487549 881.0411084 883.08975098 880.03198242 883.13598633 C859.59833961 884.08774794 839.28826316 885.27350301 819 888 C818.34922485 888.08743469 817.69844971 888.17486938 817.0279541 888.26495361 C735.63989298 899.25689474 657.0719001 922.97544436 582.375 956.875 C581.71147522 957.17579468 581.04795044 957.47658936 580.36431885 957.78649902 C571.045471 962.02363582 561.86991862 966.51297848 552.73284912 971.12774658 C550.44074432 972.28150903 548.1392765 973.4157331 545.8359375 974.546875 C512.05678224 991.19279971 479.09440834 1010.34785926 448.01611328 1031.62304688 C445.63013288 1033.25260966 443.23494861 1034.86825424 440.83984375 1036.484375 C421.75568205 1049.38958674 403.23937422 1062.92790002 385 1077 C384.33484375 1077.51304688 383.6696875 1078.02609375 382.984375 1078.5546875 C365.54178444 1092.04660584 348.54945552 1106.17650871 332.21875 1120.99609375 C330.20691607 1122.81311982 328.17339566 1124.59944392 326.125 1126.375 C321.22829873 1130.64742063 316.44493563 1135.0420084 311.67480469 1139.45458984 C310.03067475 1140.97169517 308.37878808 1142.48000326 306.7265625 1143.98828125 C297.04968713 1152.88669678 287.74014753 1162.15174607 278.4375 1171.4375 C277.44692596 1172.42419174 277.44692596 1172.42419174 276.43634033 1173.43081665 C267.21179418 1182.59147518 267.21179418 1182.59147518 258.51098633 1192.24389648 C255.67074265 1195.54489386 252.62634178 1198.65865971 249.625 1201.8125 C244.54264462 1207.189015 239.71605846 1212.6387559 235.10546875 1218.42578125 C232.82799154 1221.21030348 230.43687992 1223.85413803 228 1226.5 C223.1063174 1231.8296789 218.53792156 1237.36696488 214 1243 C212.96705767 1244.26506799 211.93314342 1245.5293428 210.8984375 1246.79296875 C204.11531478 1255.08534631 197.46270959 1263.45436992 191 1272 C190.54302734 1272.60247559 190.08605469 1273.20495117 189.61523438 1273.82568359 C186.0500035 1278.53067873 182.51895055 1283.26032607 179 1288 C178.52288574 1288.63873047 178.04577148 1289.27746094 177.55419922 1289.93554688 C155.66803624 1319.31594964 135.87223797 1350.5201083 117.59570312 1382.2421875 C115.67554095 1385.56075419 113.72767316 1388.86226429 111.77392578 1392.16113281 C102.64342284 1407.58044901 94.55595063 1423.42085341 86.99389648 1439.66064453 C85.11497265 1443.68124047 83.17564959 1447.65958009 81.15332031 1451.60986328 C65.00009442 1483.22216734 52.19215017 1516.96378086 41 1550.625 C40.60781281 1551.80187881 40.60781281 1551.80187881 40.20770264 1553.00253296 C36.31325785 1564.71721424 32.69677457 1576.45446454 29.65771484 1588.42382812 C28.95190411 1591.18838451 28.22215144 1593.94588974 27.48828125 1596.703125 C18.13717838 1631.9366922 9.34818309 1667.9489065 6.359375 1704.3515625 C6 1708 6 1708 5 1711 C4.72090634 1713.5372317 4.48324732 1716.06203073 4.28125 1718.60546875 C4.21844849 1719.36233475 4.15564697 1720.11920074 4.09094238 1720.89900208 C3.95812445 1722.50861468 3.8271104 1724.118377 3.69775391 1725.72827148 C3.50433038 1728.13364821 3.30543794 1730.53851898 3.10546875 1732.94335938 C2.28125904 1742.95588062 1.58655942 1752.97069659 1 1763 C0.67 1763 0.34 1763 0 1763 C-0.09498779 1761.74493652 -0.18997559 1760.48987305 -0.2878418 1759.19677734 C-3.86334226 1712.39139949 -9.34729144 1666.64345284 -20.51959229 1620.96917725 C-21.01034088 1618.95761302 -21.49666295 1616.9450212 -21.98193359 1614.93212891 C-26.12115355 1597.78511016 -30.54574855 1580.78368582 -36 1564 C-36.19936157 1563.3844928 -36.39872314 1562.7689856 -36.60412598 1562.13482666 C-42.29003735 1544.58968243 -48.10900312 1527.11536956 -55 1510 C-55.41797852 1508.95585938 -55.83595703 1507.91171875 -56.26660156 1506.8359375 C-72.18660893 1467.23506141 -90.13964798 1428.22850592 -111.64941406 1391.33398438 C-113.26267401 1388.54606589 -114.82350076 1385.73156696 -116.37939453 1382.91137695 C-133.81032804 1351.42388769 -154.22279978 1321.27313279 -175.3125 1292.125 C-175.84536621 1291.38797852 -176.37823242 1290.65095703 -176.92724609 1289.89160156 C-182.56182512 1282.15040803 -188.43861126 1274.60316927 -194.36279297 1267.08251953 C-195.89616365 1265.13207934 -197.42058235 1263.17507436 -198.94140625 1261.21484375 C-203.85397028 1254.8958567 -208.88079694 1248.70237001 -214.08227539 1242.61865234 C-216.83131048 1239.40000483 -219.50562316 1236.13729317 -222.125 1232.8125 C-225.53670332 1228.50775369 -229.14882675 1224.42641577 -232.84765625 1220.3671875 C-234.75817947 1218.2659587 -236.63668448 1216.14302801 -238.5 1214 C-241.85193369 1210.15377194 -245.25940346 1206.35971956 -248.6796875 1202.57421875 C-250.21205386 1200.8741692 -251.73823801 1199.16852432 -253.2578125 1197.45703125 C-257.57761698 1192.60289555 -261.99780263 1187.92167025 -266.6640625 1183.3984375 C-268.56962612 1181.4418889 -270.34444396 1179.45707726 -272.12109375 1177.38671875 C-276.65411531 1172.16621321 -281.54024265 1167.31387352 -286.4375 1162.4375 C-287.34048828 1161.53064453 -288.24347656 1160.62378906 -289.17382812 1159.68945312 C-293.75528627 1155.11462996 -298.39534065 1150.68899802 -303.30883789 1146.47290039 C-305.48005126 1144.58190425 -307.49572206 1142.56594803 -309.5 1140.5 C-312.80986698 1137.15066271 -316.20746949 1134.00074044 -319.78125 1130.9375 C-321.9840864 1129.01389638 -324.13330915 1127.03879673 -326.27685547 1125.04956055 C-331.50602011 1120.19865821 -336.86020142 1115.58970902 -342.41796875 1111.11328125 C-344.83793079 1109.13264666 -347.17652672 1107.09236403 -349.5 1105 C-354.52576927 1100.48923889 -359.74461344 1096.2393003 -365 1092 C-366.11071524 1091.09640107 -367.22139077 1090.19275332 -368.33203125 1089.2890625 C-377.90769506 1081.53136216 -387.73605306 1074.13295625 -397.62207031 1066.77685547 C-399.76448759 1065.17598145 -401.89665371 1063.5629586 -404.0234375 1061.94140625 C-443.22118288 1032.10304041 -485.56785784 1006.16947847 -529 983 C-529.91040039 982.51321777 -530.82080078 982.02643555 -531.75878906 981.52490234 C-579.24204323 956.21551063 -629.0460186 934.72872634 -680.5625 919.06640625 C-684.02831064 917.99121727 -687.44704165 916.81483822 -690.875 915.625 C-721.10758443 905.55789329 -753.08827821 898.60550316 -784.51123047 893.41943359 C-787.12850537 892.97834292 -789.73757602 892.50128417 -792.34765625 892.01953125 C-821.28706322 886.78543483 -850.6589777 884.49951002 -880 883 C-880 882.34 -880 881.68 -880 881 C-879.26104492 880.96559814 -878.52208984 880.93119629 -877.76074219 880.89575195 C-841.88247762 879.13781511 -804.5572219 876.56593125 -769.62109375 867.84375 C-765.40187791 866.86063175 -761.16164601 866.03816657 -756.90917969 865.21264648 C-747.99015485 863.47998212 -739.2379039 861.679834 -730.546875 859.01953125 C-726.94467101 857.98409596 -723.33376939 857.12972185 -719.68041992 856.29858398 C-708.70392797 853.79615577 -698.05622891 850.66845301 -687.37646484 847.11767578 C-684.24309461 846.08046906 -681.10508715 845.05913501 -677.9651947 844.04193115 C-595.61877559 817.33059121 -517.72010633 779.41305534 -432 722 C-430.63947014 721.05057025 -429.27878868 720.1013577 -427.91796875 719.15234375 C-412.66554808 708.48272697 -397.67802896 697.4470163 -383 686 C-381.85028509 685.10934315 -380.70054472 684.21871916 -379.55078125 683.328125 C-372.58451359 677.91279783 -365.78319025 672.33965717 -359.07421875 666.609375 C-356.29266912 664.23730965 -353.46651339 661.92507288 -350.625 659.625 C-340.36306349 651.25459605 -330.4453254 642.51420162 -320.78466797 633.45849609 C-317.84250404 630.70153275 -314.87989774 627.99351027 -311.8125 625.375 C-307.61448988 621.76129536 -303.77304965 617.80372554 -299.90625 613.84375 C-297.75165243 611.68380508 -295.5020925 609.67534902 -293.19140625 607.68359375 C-288.74531912 603.83171803 -284.58443653 599.73195383 -280.4375 595.5625 C-279.72142578 594.85029297 -279.00535156 594.13808594 -278.26757812 593.40429688 C-274.21165722 589.34099486 -270.35359057 585.17198341 -266.60571289 580.82397461 C-264.34643468 578.2575967 -261.94661573 575.8890483 -259.5 573.5 C-255.79322143 569.84288824 -252.24694509 566.11035429 -248.8671875 562.1484375 C-246.97213084 559.96793298 -245.02047908 557.84617469 -243.05517578 555.72900391 C-238.31618361 550.62111784 -233.80742921 545.39994773 -229.4375 539.96875 C-226.57073782 536.47718068 -223.60221766 533.08476528 -220.625 529.6875 C-214.98136463 523.22606498 -209.65161259 516.57026398 -204.39892578 509.79003906 C-202.43059968 507.27140609 -200.42565231 504.78297822 -198.42041016 502.29370117 C-166.34097855 462.46554114 -138.40509181 419.3271252 -113 375 C-112.55060059 374.21592773 -112.10120117 373.43185547 -111.63818359 372.62402344 C-104.27031813 359.70510523 -97.45166495 346.49611887 -90.67236328 333.26123047 C-89.1733626 330.33806972 -87.66363355 327.4207224 -86.15234375 324.50390625 C-49.94861532 254.03251299 -24.75809199 175.91466843 -11 98 C-10.81564392 96.96301971 -10.81564392 96.96301971 -10.62756348 95.90509033 C-5.01962386 64.14925518 -2.48360965 32.12006665 0 0 Z " fill="#FEFEFE" transform="translate(999,113)"/>
<path d="M0 0 C1.16053894 0.00060425 2.32107788 0.0012085 3.51678467 0.00183105 C94.2535388 0.12859939 184.95430718 12.47071454 281 40.1875 C281.71291199 40.39763733 282.42582397 40.60777466 283.16033936 40.82427979 C328.29012819 54.17122663 372.48323192 71.0050826 415 91.1875 C416.54373291 91.91815674 416.54373291 91.91815674 418.11865234 92.66357422 C425.43207762 96.13146346 432.72146484 99.64705262 440 103.1875 C440.88139648 103.61385742 441.76279297 104.04021484 442.67089844 104.47949219 C455.52010674 110.70896226 467.93921206 117.57110405 480.32666016 124.66943359 C483.42765764 126.43034705 486.55469905 128.13879063 489.68798828 129.84130859 C518.96206559 145.80715218 547.03205906 164.59832382 574 184.1875 C574.74185547 184.72503906 575.48371094 185.26257813 576.24804688 185.81640625 C598.01122732 201.62126351 618.94687027 218.37712143 639.40527344 235.83105469 C641.04909383 237.22925831 642.6998962 238.61888965 644.3515625 240.0078125 C652.06843476 246.52450142 659.4923483 253.3035925 666.8203125 260.25390625 C670.00619749 263.274536 673.24926098 266.2255501 676.50390625 269.171875 C683.46477274 275.51250075 690.11894209 282.15531833 696.76538086 288.82250977 C698.82357157 290.88610061 700.8871098 292.94423675 702.95117188 295.00195312 C704.28677934 296.3382209 705.62207684 297.67479857 706.95703125 299.01171875 C707.56134476 299.61400803 708.16565826 300.2162973 708.7882843 300.83683777 C712.47728091 304.54583552 715.9721046 308.37413003 719.3745575 312.34797668 C721.01621278 314.20584811 722.73013836 315.95205465 724.5 317.6875 C728.21182466 321.35016142 731.61067228 325.22686514 735 329.1875 C735.89571402 330.23057122 736.7915573 331.27353145 737.6875 332.31640625 C739.73033078 334.69581482 741.77026787 337.07766904 743.80859375 339.4609375 C745.92030934 341.92924374 748.0376464 344.39253309 750.16015625 346.8515625 C755.91484372 353.52421442 761.57085869 360.2450092 767 367.1875 C767.74588379 368.13834473 767.74588379 368.13834473 768.50683594 369.10839844 C776.80949102 379.698767 785.00434507 390.36325504 793 401.1875 C793.50321777 401.86683594 794.00643555 402.54617188 794.52490234 403.24609375 C803.41490706 415.28248211 811.76960599 427.648801 819.99462891 440.14697266 C821.92753554 443.07762998 823.87441123 445.99853809 825.82421875 448.91796875 C834.51370393 461.99629984 842.50642895 475.39244119 850.22851562 489.06201172 C851.88177715 491.97891553 853.55401762 494.88380118 855.234375 497.78515625 C864.74494718 514.28037762 873.43930234 531.1854194 882 548.1875 C882.5775 549.3317041 883.155 550.4759082 883.75 551.65478516 C899.38764298 582.83139609 912.56111707 615.21139072 924.24145508 648.05834961 C924.99841938 650.18306338 925.76127877 652.30558179 926.52539062 654.42773438 C954.06052219 731.08438863 971.14455389 812.05423873 978 893.1875 C978.07412109 894.04085937 978.14824219 894.89421875 978.22460938 895.7734375 C985.82299119 983.70684757 981.19312652 1073.19733511 889 1395.1875 C888.5488382 1396.14496124 888.5488382 1396.14496124 888.08856201 1397.12176514 C876.66947632 1421.33874954 864.50017572 1445.06025515 851 1468.1875 C850.22487061 1469.52312988 850.22487061 1469.52312988 849.43408203 1470.88574219 C834.1828625 1497.1446902 817.54678731 1522.41642059 800 1547.1875 C799.44908691 1547.96561035 798.89817383 1548.7437207 798.33056641 1549.54541016 C784.09075677 1569.60105784 768.83863795 1588.89643763 752.87768555 1607.60888672 C750.06950367 1610.90413424 747.33308511 1614.2472793 744.625 1617.625 C740.00591376 1623.307473 735.02540953 1628.61802979 730.015625 1633.953125 C727.6616963 1636.46378878 725.37005786 1639.01587871 723.125 1641.625 C720.49068637 1644.68106334 717.69671568 1647.51387487 714.81713867 1650.33789062 C713.1715241 1652.01291091 711.66235221 1653.73088928 710.15234375 1655.52734375 C705.03348156 1661.41247835 699.47028808 1666.86628879 693.94848633 1672.36938477 C692.06671726 1674.24579475 690.19035262 1676.12748969 688.31445312 1678.00976562 C682.94004204 1683.387205 677.58149734 1688.72089136 671.78686523 1693.65014648 C668.41947658 1696.54732456 665.2243389 1699.6331946 662 1702.6875 C643.04308968 1720.6447295 622.65264763 1737.2229382 602 1753.1875 C601.22672363 1753.78820313 600.45344727 1754.38890625 599.65673828 1755.0078125 C588.8300778 1763.4064736 577.87584844 1771.49649546 566.4921875 1779.125 C563.14357051 1781.37799862 559.87770917 1783.72398816 556.625 1786.11328125 C551.23905716 1790.0520032 545.72521115 1793.74929428 540.125 1797.375 C539.12960205 1798.02082031 538.1342041 1798.66664062 537.10864258 1799.33203125 C511.72508723 1815.74355265 485.66822895 1830.95855651 459 1845.1875 C457.54956299 1845.96407959 457.54956299 1845.96407959 456.06982422 1846.75634766 C439.65568224 1855.51570249 422.96757749 1863.55877391 406 1871.1875 C404.83436523 1871.71311523 403.66873047 1872.23873047 402.46777344 1872.78027344 C319.33616042 1910.06674077 231.0046125 1935.28722027 -303.21191406 1909.41894531 C-306.51925555 1908.34378222 -309.83196721 1907.28873777 -313.1484375 1906.2421875 C-357.53274774 1892.06402575 -400.40263849 1873.05909298 -442 1852.1875 C-442.9870694 1851.69316467 -442.9870694 1851.69316467 -443.99407959 1851.18884277 C-460.46453778 1842.93233402 -476.58142333 1834.18212903 -492.40332031 1824.73193359 C-494.7571117 1823.33196327 -497.12056433 1821.95150749 -499.4921875 1820.58203125 C-541.72640303 1796.15914476 -581.44906021 1767.49677134 -619.19580078 1736.65966797 C-620.78273046 1735.36478489 -622.37348737 1734.07459522 -623.96484375 1732.78515625 C-634.41813239 1724.29665608 -644.61902016 1715.53518091 -654.5390625 1706.4296875 C-656.74786947 1704.41721893 -658.98693298 1702.45091984 -661.25 1700.5 C-664.35389526 1697.8061722 -667.24805151 1694.9644543 -670.12416077 1692.03089905 C-671.93995718 1690.24650446 -673.81370031 1688.58597441 -675.74780273 1686.93139648 C-679.84137721 1683.37055349 -683.70590554 1679.6265809 -687.53515625 1675.78515625 C-688.21750839 1675.10376083 -688.89986053 1674.42236542 -689.60289001 1673.72032166 C-691.03344437 1672.29044259 -692.46275767 1670.85932089 -693.89086914 1669.42700195 C-696.05699074 1667.25552289 -698.22840174 1665.08943675 -700.40039062 1662.92382812 C-701.79979987 1661.52375798 -703.19889884 1660.12337762 -704.59765625 1658.72265625 C-705.23639175 1658.08594498 -705.87512726 1657.4492337 -706.53321838 1656.79322815 C-710.30656686 1653.00051791 -713.89882356 1649.09855873 -717.38719177 1645.04185486 C-720.1700457 1641.84221921 -723.09203409 1638.77303625 -726 1635.6875 C-730.76678456 1630.60122753 -735.4693222 1625.48625408 -740 1620.1875 C-740.89799555 1619.15456354 -741.79648068 1618.1220526 -742.6953125 1617.08984375 C-748.30726257 1610.62203476 -753.74769228 1604.05933635 -758.99731445 1597.29394531 C-761.89839459 1593.56212266 -764.88113065 1589.91969828 -767.9375 1586.3125 C-773.34507705 1579.86598689 -778.37062813 1573.16081328 -783.36865234 1566.39404297 C-785.06971021 1564.09321073 -786.77865023 1561.79837375 -788.48828125 1559.50390625 C-795.88849243 1549.54808789 -803.07290338 1539.47766854 -810 1529.1875 C-810.54124512 1528.38586426 -811.08249023 1527.58422852 -811.64013672 1526.75830078 C-830.94354157 1498.13263101 -848.84138072 1468.70700699 -865 1438.1875 C-865.54188965 1437.16543457 -866.0837793 1436.14336914 -866.64208984 1435.09033203 C-907.6738093 1357.43525968 -937.97673261 1274.95816976 -978 1036.1875 C-978.08757568 1034.89054199 -978.17515137 1033.59358398 -978.26538086 1032.25732422 C-979.2581696 1016.39153381 -979.18737612 1000.50263832 -979.18530273 984.61279297 C-979.18522222 981.35785271 -979.19205937 978.10305545 -979.20581055 974.84814453 C-979.32977729 944.9902287 -978.32532897 915.22164037 -975.3125 885.5 C-975.23174225 884.68583618 -975.1509845 883.87167236 -975.06777954 883.03283691 C-970.48310609 837.27179724 -962.78687149 791.88952809 -952 747.1875 C-951.83820251 746.51497192 -951.67640503 745.84244385 -951.50970459 745.14953613 C-939.21252959 694.17602843 -922.46404557 644.45181352 -902 596.1875 C-901.60358307 595.25251678 -901.60358307 595.25251678 -901.19915771 594.29864502 C-885.70574885 557.86580112 -867.97114515 522.05514639 -847.70263672 488.05322266 C-846.02825589 485.23505774 -844.3726081 482.40674348 -842.72265625 479.57421875 C-831.86527823 460.97211892 -820.38018224 442.81382334 -808 425.1875 C-807.04807056 423.82299097 -806.09625004 422.45840596 -805.14453125 421.09375 C-789.02984503 398.05821883 -772.02770626 375.7580988 -754 354.1875 C-753.23961426 353.27629395 -753.23961426 353.27629395 -752.46386719 352.34667969 C-747.10877582 345.93975883 -741.66161942 339.63141074 -736.046875 333.44921875 C-734.1749031 331.38076125 -732.3313661 329.29189086 -730.5 327.1875 C-726.384539 322.47342649 -722.21754269 317.81057564 -718 313.1875 C-717.53787109 312.67880371 -717.07574219 312.17010742 -716.59960938 311.64599609 C-707.37205996 301.52653086 -697.73513709 291.81589817 -688.0625 282.125 C-687.42880493 281.48871674 -686.79510986 280.85243347 -686.14221191 280.1968689 C-673.60591819 267.62023622 -673.60591819 267.62023622 -667.57910156 262.55834961 C-665.85168723 261.05874672 -664.27180863 259.46167209 -662.6875 257.8125 C-659.90697444 254.98176179 -656.96847403 252.4846282 -653.875 250 C-649.58433303 246.54983355 -645.51389925 242.94923263 -641.5 239.1875 C-635.86462475 233.92221156 -630.02056343 229.01021401 -624 224.1875 C-622.73722387 223.15754505 -621.47557873 222.12620246 -620.21484375 221.09375 C-611.92085744 214.30675988 -603.54856436 207.65242867 -595 201.1875 C-594.39752441 200.73052734 -593.79504883 200.27355469 -593.17431641 199.80273438 C-588.46934263 196.23751969 -583.74289411 192.7020977 -579 189.1875 C-578.31341309 188.67848145 -577.62682617 188.16946289 -576.91943359 187.64501953 C-563.913177 178.03960654 -550.50639847 169.07095135 -537 160.1875 C-536.24928223 159.69040527 -535.49856445 159.19331055 -534.72509766 158.68115234 C-466.0724114 113.22348851 -390.56544567 76.76687908 -297.00506592 45.82696533 C-295.12184582 45.22635966 -293.24077517 44.61902614 -291.35986328 44.01123047 C-220.21314821 21.14156452 -145.78520256 8.21225147 -71.375 2.5 C-70.58902435 2.43897095 -69.80304871 2.37794189 -68.99325562 2.31506348 C-46.02469486 0.55808753 -23.03069818 -0.02256478 0 0 Z M-82 79.1875 C-82.88145691 79.2770697 -83.76291382 79.3666394 -84.67108154 79.45892334 C-112.7731544 82.32424494 -141.17860332 85.40459363 -168.78686523 91.49121094 C-172.33863314 92.26088209 -175.9000561 92.92601687 -179.4765625 93.56811523 C-190.14015283 95.48829961 -200.60202896 97.99415833 -211.09375 100.6875 C-215.69270354 101.86717949 -220.30415464 102.96868944 -224.93115234 104.03222656 C-279.82648349 116.69957726 -333.16495004 137.5143809 -384.10949707 161.30474854 C-385.9156137 162.14809666 -387.72291523 162.9889058 -389.53027344 163.82958984 C-403.4292804 170.31538633 -416.99173037 177.26115675 -430.38427734 184.73486328 C-432.95218474 186.16094588 -435.53026108 187.56634907 -438.11328125 188.96484375 C-464.33691287 203.18489746 -489.54253986 219.11900063 -514 236.1875 C-515.12776855 236.97302246 -515.12776855 236.97302246 -516.27832031 237.77441406 C-525.31514919 244.07872449 -534.23554381 250.50774012 -543 257.1875 C-544.30577983 258.17215322 -545.61178404 259.15650893 -546.91796875 260.140625 C-557.17062142 267.8919061 -567.14503164 275.93791015 -577 284.1875 C-577.6089209 284.69587402 -578.2178418 285.20424805 -578.84521484 285.72802734 C-585.25353674 291.0839979 -591.56357455 296.53157415 -597.74609375 302.1484375 C-599.7688269 303.97836247 -601.81369435 305.77631728 -603.875 307.5625 C-611.8267742 314.50223021 -619.53177189 321.64485865 -626.94140625 329.16015625 C-628.79866481 330.98922113 -630.70016414 332.69017615 -632.6875 334.375 C-641.21511717 341.70395612 -649.23094172 349.88868685 -656.49609375 358.46484375 C-658.09105998 360.29180507 -659.77017842 361.98809287 -661.5 363.6875 C-664.49234375 366.63350215 -667.25324172 369.71733007 -669.9921875 372.8984375 C-671.9434388 375.12301583 -673.94139294 377.29882067 -675.95410156 379.46777344 C-680.73321066 384.6213282 -685.2950487 389.88444883 -689.703125 395.36328125 C-691.72536565 397.84981184 -693.7917713 400.29039714 -695.88208008 402.71972656 C-701.72936311 409.52816392 -707.20042969 416.58160685 -712.61328125 423.73828125 C-714.87114326 426.71970774 -717.15962139 429.67281466 -719.48046875 432.60546875 C-726.7077953 441.74629501 -733.48266588 451.07853679 -739.98828125 460.74609375 C-742.18116213 464.0018964 -744.43189802 467.20227923 -746.74780273 470.37133789 C-769.47565897 501.48513411 -788.44357087 535.94897852 -806 570.1875 C-806.50966309 571.17427734 -807.01932617 572.16105469 -807.54443359 573.17773438 C-824.38303291 605.8711494 -839.23009247 639.7009206 -851.08935547 674.52929688 C-852.02309709 677.25492121 -852.96968964 679.97593402 -853.918396 682.69638062 C-861.44605511 704.28686097 -861.44605511 704.28686097 -868 726.1875 C-868.37252173 727.49512731 -868.74625515 728.80240994 -869.12109375 730.109375 C-871.76361945 739.38833078 -874.21718361 748.71860021 -876.64804077 758.05487061 C-877.00276093 759.41607938 -877.35870327 760.77697036 -877.7159729 762.13751221 C-879.80886414 770.1194438 -881.61456317 778.05552407 -883 786.1875 C-883.77604697 790.33632706 -884.57704997 794.48033536 -885.375 798.625 C-885.59414063 799.7704126 -885.81328125 800.9158252 -886.0390625 802.09594727 C-887.00099861 807.10381744 -887.96855632 812.10783079 -889.0390625 817.09375 C-894.53316472 842.81400108 -897.46910279 869.03469791 -899.69042969 895.21606445 C-899.89070737 897.13844594 -900.15242244 899.05582373 -900.48658752 900.95950317 C-901.43964247 906.95167997 -901.6819306 913.01441377 -902.04296875 919.06640625 C-902.0872167 919.80571444 -902.13146465 920.54502262 -902.17705345 921.30673409 C-903.22986196 939.36889707 -903.35495205 957.41976525 -903.31745148 975.50800323 C-903.31242096 978.166777 -903.31095453 980.82553586 -903.30999756 983.48431396 C-903.28676133 1013.78016311 -902.59645245 1043.85980877 -898.43310547 1073.91210938 C-897.99154239 1077.25146127 -897.67370431 1080.57654736 -897.41967773 1083.93408203 C-893.44986302 1135.19324349 -881.84500337 1187.48307506 -866.15576172 1236.37353516 C-864.71461554 1240.87261051 -863.36878152 1245.37879416 -862.125 1249.9375 C-859.76840449 1258.35391254 -856.79704902 1266.557688 -853.890625 1274.796875 C-852.45441026 1278.86942911 -851.07754487 1282.95343255 -849.75 1287.0625 C-848.43536337 1291.0521364 -846.87518165 1294.81548561 -845.11328125 1298.625 C-843.71294803 1301.84822314 -842.51855925 1305.13834698 -841.3125 1308.4375 C-837.96069042 1317.52450864 -834.14673892 1326.39596073 -830.27246094 1335.27050781 C-828.92815299 1338.35220225 -827.59307344 1341.43781345 -826.2578125 1344.5234375 C-821.46206485 1355.56248568 -816.538015 1366.47514269 -811.02441406 1377.17382812 C-809.9068934 1379.37051793 -808.82242135 1381.58161944 -807.7421875 1383.796875 C-801.82892346 1395.88406942 -795.36609715 1407.59125151 -788.66894531 1419.25976562 C-787.01721014 1422.15730925 -785.39125376 1425.06777624 -783.7734375 1427.984375 C-776.32900006 1441.37869692 -768.3988015 1454.37095201 -760 1467.1875 C-759.41041504 1468.08774902 -758.82083008 1468.98799805 -758.21337891 1469.91552734 C-742.80605837 1493.36950094 -726.57769367 1516.30321081 -709 1538.1875 C-708.49114258 1538.82252441 -707.98228516 1539.45754883 -707.45800781 1540.11181641 C-699.81916196 1549.62902891 -691.99735856 1558.97009961 -684 1568.1875 C-683.36707031 1568.92226562 -682.73414063 1569.65703125 -682.08203125 1570.4140625 C-678.15704033 1574.94504965 -674.10768536 1579.35937294 -670.04443359 1583.76611328 C-667.49858375 1586.53205032 -665.0004752 1589.32630661 -662.5625 1592.1875 C-659.04935991 1596.25089095 -655.23005429 1599.98452029 -651.41137695 1603.75683594 C-647.98886648 1607.15296557 -644.77097866 1610.65872835 -641.63671875 1614.32421875 C-637.50172916 1619.03159353 -633.00951619 1623.36776876 -628.25 1627.4375 C-624.65480007 1630.52314404 -621.32689538 1633.81971077 -618 1637.1875 C-614.13702755 1641.0929885 -610.23261567 1644.85880649 -606.046875 1648.421875 C-603.54285151 1650.5818342 -601.12002302 1652.82237993 -598.6875 1655.0625 C-594.20202448 1659.1531056 -589.59419456 1663.03567843 -584.87109375 1666.84765625 C-582.32184437 1668.92520779 -579.81176224 1671.03811042 -577.31201172 1673.17431641 C-570.58224428 1678.92506147 -563.69927604 1684.44843733 -556.70117188 1689.86865234 C-555.08364394 1691.12265434 -553.47136083 1692.38341298 -551.859375 1693.64453125 C-542.74539909 1700.73190699 -533.40399609 1707.49126193 -524 1714.1875 C-523.1961084 1714.76048828 -522.3922168 1715.33347656 -521.56396484 1715.92382812 C-485.67301475 1741.44311339 -447.81801801 1764.69626014 -408.25 1784.08984375 C-405.10657611 1785.63081133 -401.98792538 1787.21473748 -398.875 1788.81640625 C-349.79038978 1813.95459537 -297.82691238 1832.64190714 -245 1848.1875 C-244.10812988 1848.45401367 -243.21625977 1848.72052734 -242.29736328 1848.99511719 C-230.71785002 1852.45146754 -218.95408406 1855.08484363 -207.15966797 1857.69018555 C-201.36045602 1858.97238445 -195.57755254 1860.27425698 -189.82421875 1861.75 C-183.82013164 1863.27107551 -177.78023499 1864.45619243 -171.6875 1865.5625 C-169.94823242 1865.87948853 -169.94823242 1865.87948853 -168.17382812 1866.20288086 C-136.5604386 1871.90382877 -104.98599492 1876.00896068 -73 1878.875 C-72.32713959 1878.93584778 -71.65427917 1878.99669556 -70.96102905 1879.05938721 C-53.88314328 1880.5883733 -36.84296885 1881.34753033 -19.69921875 1881.35546875 C-18.00462316 1881.35870185 -16.31002782 1881.36206723 -14.61543274 1881.36555481 C-11.08858598 1881.37147992 -7.56176347 1881.37340181 -4.03491211 1881.37280273 C-0.48961238 1881.37272187 3.05555705 1881.37961337 6.60083008 1881.39331055 C42.4329377 1881.85146228 42.4329377 1881.85146228 78 1878.1875 C79.67370234 1878.02173551 81.34977597 1877.87832696 83.02734375 1877.7578125 C84.44406372 1877.65073975 84.44406372 1877.65073975 85.8894043 1877.54150391 C86.89527588 1877.46593262 87.90114746 1877.39036133 88.9375 1877.3125 C99.98697126 1876.43229783 110.93349186 1875.13912029 121.90966797 1873.60839844 C125.15719661 1873.16609006 128.40779928 1872.75676192 131.66015625 1872.3515625 C149.66280275 1870.06027093 167.34722836 1866.74157742 185.09667969 1863.00732422 C188.42947398 1862.30732902 191.76464214 1861.62135897 195.1015625 1860.94140625 C222.45252402 1855.28183118 249.4865285 1847.94631229 276 1839.1875 C276.76930847 1838.93357483 277.53861694 1838.67964966 278.33123779 1838.41802979 C320.78847294 1824.37581912 361.8925355 1807.97070456 402 1788.1875 C403.16160645 1787.61805664 403.16160645 1787.61805664 404.34667969 1787.03710938 C408.91910307 1784.79484268 413.46488439 1782.50417081 418 1780.1875 C418.82822266 1779.76710449 419.65644531 1779.34670898 420.50976562 1778.91357422 C435.6646171 1771.20306825 450.4203844 1762.93481103 465 1754.1875 C466.0509082 1753.55827637 467.10181641 1752.92905273 468.18457031 1752.28076172 C484.51184238 1742.46810577 500.36554093 1732.06697993 516 1721.1875 C516.83982422 1720.60419922 517.67964844 1720.02089844 518.54492188 1719.41992188 C527.50072717 1713.18691687 536.32954359 1706.81303745 545 1700.1875 C545.79615723 1699.58059326 545.79615723 1699.58059326 546.60839844 1698.96142578 C553.81496858 1693.46456685 560.95732563 1687.89352644 568 1682.1875 C568.85980469 1681.49140625 569.71960937 1680.7953125 570.60546875 1680.078125 C580.51330875 1672.01460154 590.29016971 1663.81733779 599.74609375 1655.2265625 C601.7688269 1653.39663753 603.81369435 1651.59868272 605.875 1649.8125 C613.26422471 1643.36753727 620.5185847 1636.76879913 627.38671875 1629.76953125 C629.05168986 1628.13681139 630.78450722 1626.6334865 632.5625 1625.125 C641.05267626 1617.79559003 649.05398409 1609.66915517 656.296875 1601.109375 C658.43399663 1598.69776068 660.70794279 1596.45210743 663 1594.1875 C666.54918157 1590.6757345 669.91968457 1587.09741099 673.1640625 1583.3046875 C675.3520617 1580.78150545 677.61293113 1578.33195481 679.875 1575.875 C683.9656056 1571.38952448 687.84817843 1566.78169456 691.66015625 1562.05859375 C693.73719814 1559.50996973 695.8494847 1557.00044436 697.98535156 1554.50146484 C704.2036674 1547.22345709 710.15171637 1539.76490353 716 1532.1875 C716.59973633 1531.41374023 717.19947266 1530.63998047 717.81738281 1529.84277344 C778.47353179 1451.48125636 825.65007698 1363.21663739 875.47192383 1211.10974121 C875.96341695 1209.32066535 876.46283718 1207.53377243 876.96289062 1205.74707031 C886.40181683 1171.97052065 892.56136651 1137.44791425 897.12240601 1102.70741272 C897.69023628 1098.3968361 898.32386672 1094.10683216 899.03125 1089.81640625 C900.32834547 1081.545215 901.0449633 1073.21320161 901.80493164 1064.87890625 C902.06017037 1062.08797352 902.32358472 1059.29789943 902.58789062 1056.5078125 C902.75830664 1054.66931657 902.92824328 1052.83077613 903.09765625 1050.9921875 C903.17371597 1050.19046112 903.2497757 1049.38873474 903.32814026 1048.56271362 C904.73682916 1032.90579273 905.16126947 1017.25159787 905.16796875 1001.5390625 C905.17119981 999.70754981 905.17456508 997.87603736 905.17805481 996.04452515 C905.18398514 992.23101201 905.18590121 988.41752132 905.18530273 984.60400391 C905.18522177 980.76085677 905.19212783 976.91782959 905.20581055 973.07470703 C905.28427423 950.67552953 904.99435529 928.51252459 903 906.1875 C902.85657906 904.44915864 902.7143221 902.71072068 902.57348633 900.97216797 C902.19553961 896.41448164 901.76778826 891.86306777 901.3125 887.3125 C901.23207458 886.50363342 901.15164917 885.69476685 901.06878662 884.86138916 C897.83053913 852.77218076 893.06797408 820.66275264 886 789.1875 C885.83586609 788.45593689 885.67173218 787.72437378 885.50262451 786.97064209 C881.17226016 767.72418791 876.54211772 748.62983307 870.76904297 729.75830078 C870.03814533 727.31501439 869.35440084 724.86482251 868.69140625 722.40234375 C860.6498006 692.65082686 849.69030892 663.67368133 838 635.1875 C837.38995117 633.69959961 837.38995117 633.69959961 836.76757812 632.18164062 C822.47051455 597.56639312 805.94632829 563.50040624 787 531.1875 C786.37625488 530.11693359 785.75250977 529.04636719 785.10986328 527.94335938 C773.21739296 507.55291728 760.92243186 487.44027528 747.35205078 468.11621094 C745.96501393 466.1375921 744.58948906 464.15130592 743.21484375 462.1640625 C723.91668002 434.39857128 702.78274777 407.47553332 680.0390625 382.44140625 C678.20913753 380.4186731 676.41118272 378.37380565 674.625 376.3125 C668.17879138 368.92184686 661.57858609 361.66648635 654.578125 354.796875 C652.96677454 353.15361661 651.48643681 351.44419804 650 349.6875 C642.34737824 340.82017637 633.8366976 332.4076201 624.88671875 324.85546875 C622.48498902 322.73220044 620.25295437 320.4677216 618 318.1875 C614.46686601 314.61666488 610.86626905 311.22198775 607.05078125 307.95703125 C604.72433417 305.94963977 602.45807314 303.88283362 600.1875 301.8125 C595.89040173 297.93399273 591.46241246 294.25884032 586.9609375 290.62109375 C584.30190937 288.43563923 581.6987523 286.2027899 579.10424805 283.94213867 C571.32078562 277.16965824 563.21805238 270.89313461 554.97949219 264.68652344 C553.19764758 263.33717392 551.42751878 261.97480718 549.6640625 260.6015625 C484.71769878 210.05137008 411.46241877 169.39985616 335 139.1875 C333.43789795 138.5685083 333.43789795 138.5685083 331.84423828 137.93701172 C311.51040299 129.94662006 290.72335747 123.08865591 270 116.1875 C268.87770996 115.81351074 267.75541992 115.43952148 266.59912109 115.05419922 C252.89038345 110.54595664 238.90896671 107.02354009 224.9375 103.4375 C224.00585022 103.19834869 223.07420044 102.95919739 222.11431885 102.71279907 C207.00589036 98.84760029 191.87071325 95.47143555 176.53540039 92.61743164 C174.5941026 92.25588565 172.65348972 91.89066828 170.71289062 91.52539062 C166.47800319 90.7308813 162.23933405 89.95787473 158 89.1875 C157.14455597 89.03062714 156.28911194 88.87375427 155.40774536 88.71212769 C132.06915665 84.45087802 108.58582514 81.68200946 85 79.1875 C84.09588379 79.09128357 83.19176758 78.99506714 82.26025391 78.89593506 C28.41270528 73.25594343 -28.16738239 73.61092574 -82 79.1875 Z " fill="#FEFEFE" transform="translate(999,18.8125)"/>
<path d="M0 0 C0.33 0 0.66 0 1 0 C1.33 6.6 1.66 13.2 2 20 C-1 17 -1 17 -1.2487793 15.09887695 C-1.19117432 14.40238037 -1.13356934 13.70588379 -1.07421875 12.98828125 C-1.01943359 12.23095703 -0.96464844 11.47363281 -0.90820312 10.69335938 C-0.83537109 9.90767578 -0.76253906 9.12199219 -0.6875 8.3125 C-0.62626953 7.51521484 -0.56503906 6.71792969 -0.50195312 5.89648438 C-0.34886031 3.92983047 -0.17629291 1.96471011 0 0 Z " fill="#E6EEFD" transform="translate(999,113)"/>
</svg>
